<?xml version="1.0" encoding="utf-8"?>
<!-- Generator: Adobe Illustrator 19.0.0, SVG Export Plug-In . SVG Version: 6.00 Build 0)  -->
<svg version="1.1" id="Livello_1" xmlns="http://www.w3.org/2000/svg" xmlns:xlink="http://www.w3.org/1999/xlink" x="0px" y="0px"
	 viewBox="-221 110.8 397.5 373.5" style="enable-background:new -221 110.8 397.5 373.5;" xml:space="preserve">
<style type="text/css">
	.st0{fill:#36C63F;}
	.st1{fill:#0071BC;}
	.st2{fill:#FF0000;}
	.st3{fill:#CB2D1E;}
	.st4{fill:#42B7CA;}
	.st5{fill:#1C71B1;}
</style>
<circle id="XMLID_4_" class="st0" cx="529.8" cy="-128.6" r="116.4"/>
<circle id="XMLID_3_" class="st1" cx="603.1" cy="-250.7" r="116.4"/>
<path id="XMLID_29_" class="st1" d="M603.1-367.1c-33.2,0-63.1,13.9-84.3,36.2c20.3-17.4,46.8-28,75.7-28
	c64.3,0,116.4,52.1,116.4,116.4c0,31.1-12.2,59.3-32,80.1c24.9-21.3,40.7-53,40.7-88.4C719.4-315,667.3-367.1,603.1-367.1z"/>
<g id="XMLID_1_">
	<circle id="XMLID_113_" class="st2" cx="456.4" cy="-250.7" r="116.4"/>
</g>
<g id="XMLID_28_">
	<path id="XMLID_70_" class="st3" d="M347.4-245.2c0-64.3,52.1-116.4,116.4-116.4c25,0,48,7.9,67,21.2c-20.2-16.7-46-26.8-74.3-26.8
		c-64.3,0-116.4,52.1-116.4,116.4c0,39.3,19.5,74,49.4,95.1C363.7-177,347.4-209.2,347.4-245.2z"/>
</g>
<path id="XMLID_30_" class="st0" d="M529.8-21.7c-62.7,0-113.7-49.5-116.2-111.6c-0.1,1.6-0.1,3.2-0.1,4.8
	c0,64.3,52.1,116.4,116.4,116.4s116.4-52.1,116.4-116.4c0-1.6-0.1-3.2-0.1-4.8C643.5-71.3,592.4-21.7,529.8-21.7z"/>
<path id="XMLID_424_" class="st4" d="M-63.5,137.8c11.6-6.2,24-9.7,37-11.2c38.3-4.2,72.6,7.1,104,28.1c12.1,8.1,23,18.2,34.4,27.4
	c1.2,1,2.2,2.1,3.6,3.3c3.8-3,7.4-5.9,11.9-9.5c-0.9,21.4-1.7,41.7-2.5,62.9c-18.6-10.3-36.4-20.2-55-30.6c5.7-2.2,10.5-4,15.6-5.9
	c-0.3-0.8-0.5-1.5-0.9-2c-18.4-24-40.1-44-68.2-56.1C-9.5,133.3-36,130.5-63.5,137.8z"/>
<path id="XMLID_423_" class="st4" d="M-183.7,342.9c-5.2-10.1-8.5-20.4-10.4-31.3c-4.6-27.2-0.5-53.4,9.9-78.7
	c9.9-24.1,24.6-45,42.2-64c1-1,1.9-2.1,3.2-3.4c-3-3.8-6-7.7-9.5-12.2c21-1.5,41.3-2.9,62.5-4.3c-10.1,21-19.9,41.3-30,62.2
	c-2.2-5.9-4.2-11.2-6.5-17.3c-7.1,6.3-13.8,11.9-20,18c-21.1,20.8-36.6,45.1-42.9,74.5c-3.8,17.7-3.6,35.3,1,52.8
	c0.2,1,0.5,1.9,0.8,2.9C-183.4,342.2-183.5,342.4-183.7,342.9z"/>
<path id="XMLID_422_" class="st4" d="M16,458.9c-12.2,6.2-25,10-38.4,11.5c-35,3.9-66.7-5.6-96.5-23.2
	c-15.4-9.1-29.2-20.2-42.4-32.7c-3.9,3.1-7.7,6.1-12.3,9.7c0-21.4,0-42,0-63c18.8,10.1,37.6,20.2,57.2,30.8
	c-5.7,2.2-10.5,4-16.2,6.2c5.7,6.4,10.8,12.6,16.4,18.4c20.7,21.3,44.7,37,74,43.7c18.5,4.3,36.9,4.1,55.3-0.9
	c0.8-0.2,1.6-0.5,2.4-0.7C15.5,458.6,15.6,458.7,16,458.9z"/>
<path id="XMLID_421_" class="st4" d="M87.3,439.3c3.2,4,5.6,7,8.3,10.4c-19.8,0-39,0-59,0c9.4-17.9,18.7-35.7,28.5-54.3
	c2.1,5.5,3.8,10.2,5.8,15.4c4.1-3.3,7.8-6.1,11.3-9.1c22.7-19.4,40.8-42.1,50.6-70.7c8-23.2,8.9-46.7,2.3-70.3
	c0.4-0.1,0.7-0.2,1.1-0.4c2.6,7.7,5.8,15.2,7.7,23c7.4,29.9,3.4,58.8-8.2,87c-10.1,24.6-25.2,45.9-43.5,65.1
	C90.9,436.9,89.1,437.9,87.3,439.3z"/>
<path id="XMLID_420_" class="st5" d="M-21.5,323.9c1.7-6.8,2.5-13,4.8-18.7c6.2-15.7,13.1-31.2,19.6-46.9c1.4-3.3,3.3-4.9,7.1-4.6
	c3.8,0.3,7.6,0.1,12.3,0.1C14.5,272.3,6.9,290.2-1,308.9c6.4,0,12.1,0.1,17.8-0.2c0.7,0,1.7-2.3,1.8-3.6c0.7-7.6,1.3-15.2,1.8-22.8
	c0.6-7.7,0.5-7.7,8.1-9.3c1.6-0.3,3.2-0.6,5.4-1c0,12.6,0,24.7,0,37.1c3.2,0.2,5.9,0.3,9,0.5c0,4.6,0,9.1,0,13.4
	c-0.4,0.2-0.6,0.4-0.8,0.4c-8,0.5-8,0.5-8,8.7c0,10.5,0,10.5-10.2,12c-1.5,0.2-3,0.4-5,0.8c0-7.1,0-13.8,0-21.2
	C5.3,323.9-7.6,323.9-21.5,323.9z"/>
<path id="XMLID_419_" class="st5" d="M-84.6,275.9c-2.2-2.6-4.9-5.8-8-9.4c5.9-5.4,12.3-9.7,20-11.1c5.5-1,11.3-1.7,16.7-1
	c15,1.9,23.4,15.5,19.5,30.2c-2.2,8.3-7,15.1-12.7,21.2c-6.4,6.8-12.9,13.4-20.4,21.1c7.1,0,13,0,19,0s12.1,0,18.8,0
	c-1.1,4.3-1.9,8.1-3.1,11.8c-0.3,0.9-1.7,2.1-2.6,2.1c-17.3,0.1-34.6,0.1-52.1,0.1c-1.3-7-0.2-12.6,4.9-17.7
	c8.2-8.3,16-17.1,23.8-25.9c4.9-5.6,7.4-12.3,6-20c-1.2-6.6-5.5-10.1-12.2-8.4C-72.8,270.4-78.2,273.3-84.6,275.9z"/>
<path id="XMLID_418_" class="st5" d="M-33.6,153.7c5.8,2.6,11.4,4.9,16.8,7.5c0.7,0.3,1.4,1.5,1.4,2.2c0.1,14.5,0.1,29,0.1,43.8
	c-6.2,0-12.1,0-18.3,0C-33.6,189.6-33.6,172-33.6,153.7z"/>
<path id="XMLID_417_" class="st5" d="M118.3,290.5c-1.6,5.9-3.1,11.4-4.8,16.9c-0.2,0.7-1.7,1.3-2.7,1.3
	c-14.3,0.1-28.5,0.1-43.2,0.1c0-6.2,0-12,0-18.2C84.5,290.5,101,290.5,118.3,290.5z"/>
<path id="XMLID_416_" class="st5" d="M-15.7,393.3c0,16.5,0,32.7,0,49.8c-6.1-2.1-11.8-3.9-17.3-6c-0.6-0.2-1-1.6-1-2.5
	c0-13.4,0.1-26.8,0.3-40.1c0-0.4,0.3-0.8,0.4-1.2C-27.5,393.3-21.6,393.3-15.7,393.3z"/>
<path id="XMLID_415_" class="st5" d="M-117.3,290.6c0,5.9,0,11.7,0,17.9c-16.6,0-33.1,0-50.3,0c3.4-6,6.6-11.7,10-17.3
	c0.4-0.6,1.6-1,2.5-1c12.1,0,24.3,0,36.4,0C-118.3,290.1-117.9,290.3-117.3,290.6z"/>
<path id="XMLID_414_" class="st5" d="M63,256.7c-2.3-3.9-4.4-7.5-6.8-11.7c7.5-4.3,14.8-8.6,22.5-13c2.3,4,4.4,7.6,6.8,11.7
	C78,248,70.6,252.3,63,256.7z"/>
<path id="XMLID_413_" class="st5" d="M85.2,355.9c-2.4,4.1-4.4,7.7-6.7,11.7c-7.5-4.3-14.7-8.5-22.5-12.9c2.2-3.8,4.3-7.5,6.7-11.7
	C70.1,347.3,77.4,351.4,85.2,355.9z"/>
<path id="XMLID_412_" class="st5" d="M-92.7,403.1c4.5-7.8,8.6-14.9,13-22.5c3.9,2.2,7.6,4.4,11.7,6.7c-4.3,7.5-8.5,14.8-13,22.5
	C-85,407.6-88.7,405.5-92.7,403.1z"/>
<path id="XMLID_411_" class="st5" d="M42.5,195.9c-4.5,7.7-8.6,14.9-13,22.4c-4-2.3-7.7-4.4-11.7-6.7c4.4-7.6,8.6-14.8,13-22.5
	C34.7,191.3,38.4,193.5,42.5,195.9z"/>
<path id="XMLID_410_" class="st5" d="M-79.5,218.3c-4.3-7.6-8.4-14.8-12.7-22.4c3.9-2.3,7.6-4.4,11.7-6.8
	c4.3,7.5,8.4,14.8,12.7,22.5C-71.7,213.9-75.4,216-79.5,218.3z"/>
<path id="XMLID_409_" class="st5" d="M42.7,402.9c-4,2.3-7.6,4.4-11.6,6.8c-4.3-7.4-8.5-14.7-12.9-22.5c4-2.3,7.7-4.4,11.7-6.7
	C34.2,388,38.4,395.3,42.7,402.9z"/>
<path id="XMLID_408_" class="st5" d="M-113.1,257.1c-7.6-4.5-14.7-8.7-22.1-13.1c2.3-4,4.4-7.6,6.8-11.6c7.3,4.3,14.5,8.6,22.1,13
	C-108.5,249.3-110.7,253-113.1,257.1z"/>
<path id="XMLID_407_" class="st5" d="M-106,354.3c-7.6,4.4-14.7,8.6-22.3,13c-2.3-3.9-4.5-7.6-6.8-11.7c7.5-4.4,14.6-8.6,22.2-13
	C-110.6,346.4-108.4,350.2-106,354.3z"/>
</svg>
