<?xml version="1.0" encoding="utf-8"?>
<!-- Generator: Adobe Illustrator 19.0.0, SVG Export Plug-In . SVG Version: 6.00 Build 0)  -->
<svg version="1.1" id="Livello_1" xmlns="http://www.w3.org/2000/svg" xmlns:xlink="http://www.w3.org/1999/xlink" x="0px" y="0px"
	 viewBox="0 0 397.5 373.5" style="enable-background:new 0 0 397.5 373.5;" xml:space="preserve">
<style type="text/css">
	.st0{fill:#36C63F;stroke:#000000;stroke-width:3;stroke-miterlimit:10;}
	.st1{fill:#0071BC;stroke:#000000;stroke-width:3;stroke-miterlimit:10;}
	.st2{fill:#FF0000;}
	.st3{fill:#CB2D1E;}
	.st4{fill:#36C63F;stroke:#000000;stroke-width:2;stroke-miterlimit:10;}
</style>
<circle id="XMLID_4_" class="st0" cx="200.1" cy="248.1" r="116.4"/>
<circle id="XMLID_3_" class="st1" cx="273.5" cy="125.9" r="116.4"/>
<path id="XMLID_29_" class="st1" d="M273.5,9.6c-33.2,0-63.1,13.9-84.3,36.2c20.3-17.4,46.8-28,75.7-28
	c64.3,0,116.4,52.1,116.4,116.4c0,31.1-12.2,59.3-32,80.1c24.9-21.3,40.7-53,40.7-88.4C389.8,61.7,337.7,9.6,273.5,9.6z"/>
<g id="XMLID_1_">
	<path id="XMLID_61_" class="st2" d="M126.8,243.8C61.8,243.8,9,190.9,9,125.9C9,61,61.8,8.1,126.8,8.1S244.7,61,244.7,125.9
		C244.7,190.9,191.8,243.8,126.8,243.8z"/>
	<path id="XMLID_40_" d="M126.8,9.6c64.3,0,116.4,52.1,116.4,116.4s-52.1,116.4-116.4,116.4S10.5,190.2,10.5,125.9
		S62.6,9.6,126.8,9.6 M126.8,6.6C95,6.6,65,19,42.4,41.5c-22.5,22.5-35,52.5-35,84.4s12.4,61.9,35,84.4c22.5,22.5,52.5,35,84.4,35
		c31.9,0,61.9-12.4,84.4-35c22.5-22.5,35-52.5,35-84.4s-12.4-61.9-35-84.4S158.7,6.6,126.8,6.6L126.8,6.6z"/>
</g>
<g id="XMLID_28_">
	<path id="XMLID_70_" class="st3" d="M17.7,131.5c0-64.3,52.1-116.4,116.4-116.4c25,0,48,7.9,67,21.2c-20.2-16.7-46-26.8-74.3-26.8
		C62.6,9.6,10.5,61.7,10.5,125.9c0,39.3,19.5,74,49.4,95.1C34.1,199.7,17.7,167.5,17.7,131.5z"/>
</g>
<path id="XMLID_30_" class="st4" d="M200.1,354.9c-62.7,0-113.7-49.5-116.2-111.6c-0.1,1.6-0.1,3.2-0.1,4.8
	c0,64.3,52.1,116.4,116.4,116.4s116.4-52.1,116.4-116.4c0-1.6-0.1-3.2-0.1-4.8C313.9,305.4,262.8,354.9,200.1,354.9z"/>
</svg>
