<?xml version="1.0" encoding="utf-8"?>
<!-- Generator: Adobe Illustrator 19.0.0, SVG Export Plug-In . SVG Version: 6.00 Build 0)  -->
<svg version="1.1" id="Livello_1" xmlns="http://www.w3.org/2000/svg" xmlns:xlink="http://www.w3.org/1999/xlink" x="0px" y="0px"
	 viewBox="0 0 508.1 524.1" style="enable-background:new 0 0 508.1 524.1;" xml:space="preserve">
<style type="text/css">
	.st0{fill:#FFFFFF;}
</style>
<g id="XMLID_1_">
	<path id="XMLID_46_" class="st0" d="M25.6,261.9c0.5-30.8,0.8-61.6,1.7-92.4c0.8-26.6,5.6-52.4,19.7-75.4
		C65.7,63.8,93,45.3,127.6,39.4c20.6-3.5,41.7-4.8,62.6-5.1c45.3-0.7,90.6-0.4,136,0.1c24,0.3,48,1.1,71,9
		c44.1,15.3,70.9,46.4,79.7,91.8c4,20.6,4.8,42,5.2,63.1c0.7,45.3,0.4,90.6-0.1,136c-0.3,23.8-1.1,47.7-9,70.5
		c-15.3,44.3-46.5,71.3-92.1,79.9c-20.6,3.9-42,4.8-63.1,5.1c-45.1,0.7-90.3,0.4-135.5-0.1c-24-0.3-48-1.1-71-9
		c-44.1-15.3-71-46.4-79.7-91.8c-4-20.6-4.4-42-5.2-63.1c-0.8-21.3-0.2-42.6-0.2-64C26.1,261.9,25.8,261.9,25.6,261.9z M442,258.4
		c-0.3,0-0.6,0-0.9,0c0-18,0.4-36-0.1-54c-0.5-17.3-1.1-34.6-2.9-51.8c-3.9-38.6-26.9-65.2-64.9-72.4c-20.3-3.8-41.4-4.4-62.1-4.8
		c-38-0.7-76-0.6-114,0c-19.6,0.3-39.4,1-58.7,4c-33,5.1-55.5,24-64.6,56.8c-2.9,10.5-4.6,21.6-4.9,32.5c-1,41.3-1.6,82.6-1.4,123.9
		c0.1,26.3,0.7,52.7,3,78.8c3.4,38.7,26.5,65.2,64.5,72.5c20.4,3.9,41.7,4.4,62.6,4.8c37.8,0.7,75.7,0.5,113.5,0.1
		c17.6-0.2,35.3-1.2,52.8-2.9c16.3-1.6,31.5-6.9,44.5-17.3c21.2-16.8,29.4-40.1,30.6-65.8C440.8,328,441.1,293.2,442,258.4z"/>
	<path id="XMLID_39_" class="st0" d="M371.4,262.2c0,65-52.2,117-117.3,117c-65.4,0-117-52.3-117-118.3c0-64.4,52.7-116,118.3-116
		C319.4,145,371.4,197.5,371.4,262.2z M254.2,186.1c-41.8,0.1-76,34.4-75.9,76.1c0.1,41.7,34.5,76,76.1,75.9
		c41.7-0.1,76-34.5,75.9-76.1C330.2,220.2,295.8,185.9,254.2,186.1z"/>
	<path id="XMLID_38_" class="st0" d="M376.3,112.9c15.5,0,27.3,12.1,27.2,27.7c-0.1,15-12.4,27.3-27.3,27.3
		c-15.1,0-27.7-12.6-27.6-27.7C348.5,125,360.9,112.9,376.3,112.9z"/>
</g>
</svg>
